<?xml version="1.0" standalone="no"?><!DOCTYPE svg PUBLIC "-//W3C//DTD SVG 1.1//EN"
        "http://www.w3.org/Graphics/SVG/1.1/DTD/svg11.dtd">
<svg t="1748738868853" class="icon" viewBox="0 0 1024 1024" version="1.1" xmlns="http://www.w3.org/2000/svg"
     p-id="14322" xmlns:xlink="http://www.w3.org/1999/xlink" width="200" height="200">
    <path d="M512 0C229.236364 0 0 229.236364 0 512s229.236364 512 512 512 512-229.236364 512-512S794.763636 0 512 0z m224 664.32a50.571636 50.571636 0 0 1-71.051636 71.028364l-149.108364-149.736728-155.508364 156.788364a55.226182 55.226182 0 1 1-78.103272-78.08l156.16-156.788364-149.108364-149.783272a50.571636 50.571636 0 1 1 71.051636-71.028364L512 436.48l156.16-156.788364a55.226182 55.226182 0 0 1 78.08 78.056728L587.52 512l148.48 152.32z"
          fill="#FFE20D" p-id="14323"></path>
</svg>