<?xml version="1.0" standalone="no"?>
<svg xmlns="http://www.w3.org/2000/svg" width="24" height="24"><rect width="24" height="24" opacity="0"></rect><g><path d="M7.94 4.99Q7.39 4.99 6.9 5.2Q6.41 5.4 6 5.78L1.9 9.89Q1.3 10.46 1.1 11.23Q0.91 12 1.1 12.77Q1.3 13.54 1.87 14.14L5.98 18.19Q6.36 18.58 6.86 18.79Q7.37 19.01 7.92 19.01L20.83 19.01Q21.72 19.01 22.34 18.37Q22.97 17.74 22.97 16.85L22.97 7.13Q22.97 6.24 22.34 5.62Q21.72 4.99 20.83 4.99L7.94 4.99ZM17.28 14.23Q17.62 14.57 17.48 14.95Q17.35 15.34 16.96 15.47Q16.56 15.6 16.2 15.29L13.99 13.06L11.76 15.29Q11.42 15.62 11.03 15.49Q10.63 15.36 10.5 14.96Q10.37 14.57 10.7 14.23L12.94 12L10.7 9.77Q10.37 9.43 10.5 9.04Q10.63 8.64 11.03 8.51Q11.42 8.38 11.76 8.71L13.99 10.94L16.2 8.71Q16.56 8.38 16.96 8.51Q17.35 8.64 17.48 9.04Q17.62 9.43 17.28 9.77L15.05 12L17.28 14.23Z" fill="rgba(0,0,0,1)"></path></g></svg>