<?xml version="1.0" standalone="no"?><!DOCTYPE svg PUBLIC "-//W3C//DTD SVG 1.1//EN"
        "http://www.w3.org/Graphics/SVG/1.1/DTD/svg11.dtd">
<svg t="1744255913835" class="icon" viewBox="0 0 1134 1024" version="1.1" xmlns="http://www.w3.org/2000/svg" p-id="5353"
     xmlns:xlink="http://www.w3.org/1999/xlink" width="221.484375" height="200">
    <path d="M455.268827 233.479716c48.603519 0 87.939561 40.339455 87.939562 90.036581a90.307165 90.307165 0 0 1-42.470299 77.059859v235.249601H585.13752a109.462205 109.462205 0 0 1 109.462206 109.236719l0.15784 62.008665a109.450931 109.450931 0 0 1-109.236719 109.732789H320.732573a109.473479 109.473479 0 0 1-109.462205-109.247994l-0.112743-62.065036a109.473479 109.473479 0 0 1 109.202896-109.676417h88.503276V399.865875a90.295891 90.295891 0 0 1-41.21885-68.637955l-0.326955-7.767994c0-49.697126 39.403688-90.036582 87.939561-90.036582z m129.834871 484.434239H320.574733a27.362733 27.362733 0 0 0-26.832841 22.492234l-0.439698 4.938145 0.101469 62.065036a27.385281 27.385281 0 0 0 22.413314 26.832841l4.915596 0.484795h264.641708a27.362733 27.362733 0 0 0 26.821566-22.548606l0.484795-4.92687-0.15784-62.008665a27.374007 27.374007 0 0 0-22.447137-26.821566l-4.915596-0.496069zM165.575619 11.308306a41.072285 41.072285 0 0 1 5.276373 57.80335 386.550743 386.550743 0 0 0 3.168079 496.486469 41.054246 41.054246 0 0 1-62.358168 53.417647 468.469827 468.469827 0 0 1-3.889634-602.498738 41.049736 41.049736 0 0 1 57.746978-5.298922z m628.271794 3.292096a465.166456 465.166456 0 0 1 109.304365 300.866043c0 110.555813-38.332629 215.102422-106.778922 297.799432a41.053119 41.053119 0 0 1-63.226289-52.38041 386.573292 386.573292 0 0 0-2.074472-493.363488 41.053119 41.053119 0 1 1 62.775318-52.921577z m-512.980775 128.290291a41.061011 41.061011 0 0 1 10.834605 57.036698 203.794296 203.794296 0 0 0 0.597538 228.868345 41.049736 41.049736 0 0 1-67.589444 46.517773 285.769751 285.769751 0 0 1-0.868122-321.588211 41.061011 41.061011 0 0 1 57.036698-10.834605z m397.080943 12.401733a285.769751 285.769751 0 0 1 2.25486 313.730022 41.049736 41.049736 0 0 1-68.852167-44.713884 203.433518 203.433518 0 0 0-1.589676-223.231194 41.064393 41.064393 0 1 1 68.198257-45.762395z m0 0"
          p-id="5354"></path>
</svg>