<?xml version="1.0" standalone="no"?><!DOCTYPE svg PUBLIC "-//W3C//DTD SVG 1.1//EN"
        "http://www.w3.org/Graphics/SVG/1.1/DTD/svg11.dtd">
<svg t="1744256004621" class="icon" viewBox="0 0 1024 1024" version="1.1" xmlns="http://www.w3.org/2000/svg" p-id="7415"
     xmlns:xlink="http://www.w3.org/1999/xlink" width="200" height="200">
    <path d="M943.7184 921.3952h-139.1616a30.69952 30.69952 0 0 1-30.6176-33.3312c5.2224-61.3376-7.0656-81.8688-12.544-87.8592-6.2464-6.8096-14.5408-7.2704-25.8048-7.2704h-35.6352c-34.8672 71.5776-106.3424 118.3232-183.9616 118.3232-74.5984 0-143.0528-42.3424-179.456-109.4656h-32.9728l-35.4816 36.7104a30.72 30.72 0 0 1-22.0672 9.3696H120.6784a30.72 30.72 0 0 1-24.9856-12.8512c-88.576-124.0064-38.7584-260.1472-0.0512-314.7776a30.73024 30.73024 0 0 1 25.088-12.9536h126.464c8.448 0 16.4864 3.4816 22.3232 9.6256l38.912 41.1136h33.1776a64.6656 64.6656 0 0 1-21.1456-48.0256V453.7344c0-35.328 27.9552-64.0512 62.2592-64.0512h11.008c8.4992-18.3296 24.576-34.1504 46.3872-45.3632V250.5216c0-15.36 11.3664-28.3648 26.5728-30.464 13.6192-1.8432 24.4224-3.3792 31.2832-4.3008 8.3456-1.1776 16.8448-1.2288 25.2928-0.1536l45.568 5.7856c15.36 1.9456 26.88 15.0016 26.88 30.464v94.5664c19.7632 11.0592 34.4064 26.112 42.4448 43.264 34.0992 0.3072 61.696 28.928 61.696 64.0512V509.952c0 19.968-8.96 37.8368-22.9376 49.6128 4.1984 5.4784 8.1408 11.1616 11.8272 17.0496h54.5792c72.3968 0 129.5872 23.4496 170.0352 69.7856 80.8448 92.5184 61.6448 242.0736 60.8256 248.4224a30.78144 30.78144 0 0 1-30.464 26.5728z m-107.1104-61.44h78.4384c1.1776-41.4208-3.072-121.9072-48.128-173.312-28.672-32.7168-69.12-48.5888-123.648-48.5888h-72.4992c-11.5712 0-22.1696-6.5024-27.392-16.7936-10.752-21.1456-26.1632-39.5776-44.5952-53.3504a30.70464 30.70464 0 0 1-10.752-34.304 30.7712 30.7712 0 0 1 29.1328-21.0432h20.3264c-0.0512-0.0512 0.8192-0.8704 0.8192-2.6112V453.7344c0-1.7408-0.8704-2.56-1.0752-2.6624l-22.9888 0.0512c-16.9472 0-30.72-13.7728-30.72-30.72 0-7.1168-9.1648-18.1248-29.2352-25.4976a30.75584 30.75584 0 0 1-20.1216-28.8256V278.9376l-18.7392-2.3552c-3.0208-0.3584-5.9904-0.3584-8.96 0.0512-1.4848 0.2048-3.1744 0.4608-4.9664 0.7168v87.3472c0 13.2608-8.4992 24.9856-21.0944 29.184-21.0944 6.9632-32.1536 18.6368-32.1536 26.5216 0 16.9472-13.7728 30.72-30.72 30.72h-34.9184c0.0512 0.0512-0.8192 0.8704-0.8192 2.6112V509.952c0 1.7408 0.8704 2.56 1.0752 2.6624l31.744-0.0512a30.72 30.72 0 0 1 29.1328 21.0432c4.1472 12.544-0.1536 26.368-10.752 34.304-13.824 10.2912-25.7536 23.04-35.5328 37.7856a30.6944 30.6944 0 0 1-25.6 13.7728H295.1168c-8.448 0-16.4864-3.4816-22.3232-9.6256l-38.912-41.1136H137.8304c-18.4832 33.1776-58.2656 124.3648-0.7168 217.7024h95.7952l35.4816-36.7104a30.72 30.72 0 0 1 22.0672-9.3696h65.2288c12.288 0 23.4496 7.3216 28.2624 18.688 23.5008 55.1424 75.3152 90.8288 131.9424 90.8288 59.9552 0 112.896-38.5536 134.8608-98.2016a30.70976 30.70976 0 0 1 28.8256-20.0704h55.7056c13.8752-0.1024 46.1312-0.1024 71.168 27.0848 20.1728 21.7088 30.1056 55.04 30.1568 101.2736z"
          fill="#474747" p-id="7416"></path>
    <path d="M319.232 299.9808c-22.6304 0-44.8-8.0896-62.1568-22.8864a95.7184 95.7184 0 0 1-33.4336-68.5568c-0.0512-1.2288-0.1024-2.3552-0.1024-3.5328-0.6656-27.2384 10.6496-53.4016 31.0272-71.7824 20.7872-18.7904 48.64-27.5456 76.3904-24.064l173.9264 21.9136c2.9184 0.3584 5.888 0.3584 8.8064-0.0512 29.0816-3.9424 104.2432-13.9776 174.6432-22.4768 28.0064-3.3792 55.8592 5.6832 76.544 24.7808 20.4288 18.8928 31.488 45.568 30.3616 73.216l-0.1536 2.8672c-1.4336 26.0608-13.824 50.6368-33.9456 67.4304a96.1536 96.1536 0 0 1-73.3696 21.4528L515.4304 276.48c-3.0208-0.3584-5.9904-0.3584-8.96 0.0512-27.4944 3.8912-99.6864 13.824-176.2816 22.7328-3.6352 0.512-7.3216 0.7168-10.9568 0.7168z m-0.3072-130.0992c-8.5504 0-16.7936 3.1744-23.1936 8.96-7.2192 6.5024-11.008 15.3088-10.8032 24.7808v0.1024l0.0512 2.304c0.4096 9.472 4.608 18.1248 11.9296 24.32a33.82272 33.82272 0 0 0 26.1632 7.936c75.9808-8.8576 147.5584-18.7392 174.848-22.5792 8.3456-1.1776 16.8448-1.2288 25.2928-0.1536l172.3392 21.8112c9.5232 1.1776 18.8928-1.536 26.3168-7.68 7.2192-5.9904 11.4688-14.3872 11.9296-23.6544l0.1024-2.048c0.4096-9.6768-3.3792-18.7904-10.7008-25.4976a34.35008 34.35008 0 0 0-27.4944-8.9088c-70.0416 8.448-144.8448 18.432-173.7728 22.3744-8.192 1.0752-16.5376 1.1264-24.7296 0.1024l-173.9264-21.9136c-1.4336-0.1536-2.9184-0.256-4.352-0.256z"
          fill="#336BFF" p-id="7417"></path>
</svg>