<?xml version="1.0" standalone="no"?><!DOCTYPE svg PUBLIC "-//W3C//DTD SVG 1.1//EN"
        "http://www.w3.org/Graphics/SVG/1.1/DTD/svg11.dtd">
<svg t="1748675144748" class="icon" viewBox="0 0 1024 1024" version="1.1" xmlns="http://www.w3.org/2000/svg" p-id="3790"
     xmlns:xlink="http://www.w3.org/1999/xlink" width="200" height="200">
    <path d="M704 420a36 36 0 1 1 0-72h112c53.792 0 100 37.696 100 88.208v391.584c0 50.512-46.208 88.208-100 88.208H208c-53.792 0-100-37.696-100-88.208V436.208c0-50.512 46.208-88.208 100-88.208h112a36 36 0 1 1 0 72h-112c-16.896 0-28 9.056-28 16.208v391.584c0 7.152 11.104 16.208 28 16.208h608c16.896 0 28-9.056 28-16.208V436.208c0-7.152-11.104-16.208-28-16.208h-112z"
          fill="#000000" p-id="3791"></path>
    <path d="M544.416 246.528v331.008c0 16.816-14.368 30.464-32.08 30.464-17.712 0-32.08-13.648-32.08-30.464V244.352l-58.08 52.416a33.28 33.28 0 0 1-45.36-1.104 29.408 29.408 0 0 1 1.168-43.072l111.056-100.208a33.312 33.312 0 0 1 44.176 0l112.8 101.776c12.848 11.6 13.36 30.88 1.168 43.072a33.28 33.28 0 0 1-45.344 1.12l-57.44-51.84z"
          fill="#000000" p-id="3792"></path>
</svg>